<svg width="25" height="24" viewBox="0 0 25 24" fill="none" xmlns="http://www.w3.org/2000/svg">
<path d="M12.3499 5.62598C11.0887 5.62574 9.85583 5.9995 8.80712 6.69997C7.75841 7.40045 6.94097 8.39619 6.45818 9.56126C5.9754 10.7263 5.84896 12.0084 6.09484 13.2453C6.34073 14.4823 6.9479 15.6185 7.83957 16.5104C8.73123 17.4022 9.86735 18.0096 11.1042 18.2557C12.3411 18.5019 13.6232 18.3757 14.7884 17.8931C15.9536 17.4106 16.9495 16.5933 17.6501 15.5448C18.3508 14.4962 18.7248 13.2634 18.7249 12.0023C18.7231 10.3119 18.0509 8.6913 16.8558 7.49593C15.6607 6.30056 14.0402 5.62806 12.3499 5.62598Z" fill="#21E786"/>
<path d="M22.4851 10.8771H20.9864C20.688 10.8771 20.4018 10.9956 20.1908 11.2066C19.9798 11.4176 19.8612 11.7038 19.8612 12.0023C19.8612 12.3007 19.9798 12.5869 20.1908 12.7979C20.4018 13.0089 20.688 13.1275 20.9864 13.1275H22.4851C22.7835 13.1275 23.0697 13.0089 23.2808 12.7979C23.4918 12.5869 23.6103 12.3007 23.6103 12.0023C23.6103 11.7038 23.4918 11.4176 23.2808 11.2066C23.0697 10.9956 22.7835 10.8771 22.4851 10.8771Z" fill="#21E786"/>
<path d="M12.3498 19.4999C12.0516 19.5003 11.7657 19.619 11.5549 19.83C11.3441 20.0409 11.2256 20.3268 11.2253 20.6251V22.1252C11.2253 22.4234 11.3438 22.7094 11.5547 22.9203C11.7655 23.1311 12.0515 23.2496 12.3497 23.2496C12.6479 23.2496 12.9339 23.1311 13.1447 22.9203C13.3556 22.7094 13.4741 22.4234 13.4741 22.1252V20.6251C13.4738 20.3269 13.3554 20.0409 13.1446 19.83C12.9338 19.6191 12.648 19.5003 12.3498 19.4999Z" fill="#21E786"/>
<path d="M4.85681 12.0023C4.85656 11.704 4.73803 11.4181 4.52723 11.2072C4.31643 10.9962 4.03057 10.8775 3.73236 10.8771H2.23383C1.93541 10.8771 1.64922 10.9956 1.4382 11.2066C1.22719 11.4176 1.10864 11.7038 1.10864 12.0023C1.10864 12.3007 1.22719 12.5869 1.4382 12.7979C1.64922 13.0089 1.93541 13.1275 2.23383 13.1275H3.73236C4.03058 13.127 4.31643 13.0083 4.52723 12.7973C4.73803 12.5864 4.85656 12.3005 4.85681 12.0023Z" fill="#21E786"/>
<path d="M12.3499 4.50058C12.6481 4.50013 12.9339 4.38141 13.1447 4.17048C13.3555 3.95955 13.474 3.67361 13.4743 3.3754V1.87521C13.4743 1.57701 13.3558 1.29103 13.145 1.08017C12.9341 0.869313 12.6481 0.750854 12.3499 0.750854C12.0517 0.750854 11.7658 0.869313 11.5549 1.08017C11.344 1.29103 11.2256 1.57701 11.2256 1.87521V3.3754C11.2258 3.6736 11.3443 3.95952 11.5551 4.17046C11.7658 4.3814 12.0517 4.50012 12.3499 4.50058Z" fill="#21E786"/>
<path d="M19.2451 6.6972L20.3058 5.63642C20.4106 5.53209 20.4937 5.40812 20.5505 5.27162C20.6073 5.13512 20.6366 4.98876 20.6367 4.84093C20.6369 4.69309 20.6079 4.54667 20.5514 4.41006C20.4949 4.27344 20.412 4.14931 20.3074 4.04478C20.2029 3.94024 20.0788 3.85734 19.9421 3.80083C19.8055 3.74432 19.6591 3.71531 19.5113 3.71545C19.3634 3.7156 19.2171 3.7449 19.0806 3.80167C18.9441 3.85845 18.8201 3.94159 18.7158 4.04633L17.655 5.10713C17.5502 5.21147 17.4671 5.33543 17.4103 5.47193C17.3535 5.60843 17.3242 5.75479 17.3241 5.90263C17.324 6.05047 17.353 6.19689 17.4095 6.3335C17.466 6.47011 17.5489 6.59424 17.6534 6.69878C17.758 6.80331 17.8821 6.88621 18.0187 6.94272C18.1553 6.99922 18.3017 7.02823 18.4496 7.02809C18.5974 7.02794 18.7438 6.99864 18.8803 6.94186C19.0168 6.88508 19.1407 6.80194 19.2451 6.6972Z" fill="#21E786"/>
<path d="M19.2449 17.3074C19.1406 17.2027 19.0166 17.1196 18.8801 17.0628C18.7436 17.0061 18.5973 16.9768 18.4495 16.9767C18.3017 16.9766 18.1553 17.0056 18.0187 17.0621C17.8821 17.1186 17.758 17.2015 17.6534 17.306C17.5489 17.4105 17.466 17.5346 17.4095 17.6712C17.353 17.8078 17.324 17.9542 17.3241 18.102C17.3243 18.2499 17.3535 18.3962 17.4103 18.5327C17.467 18.6692 17.5501 18.7931 17.6548 18.8975L18.7156 19.9583C18.82 20.063 18.9439 20.1461 19.0804 20.2028C19.2169 20.2596 19.3633 20.2888 19.5111 20.289C19.6589 20.2891 19.8053 20.2601 19.9419 20.2036C20.0785 20.1471 20.2026 20.0642 20.3071 19.9597C20.4116 19.8551 20.4945 19.731 20.551 19.5944C20.6075 19.4578 20.6366 19.3114 20.6364 19.1636C20.6363 19.0158 20.607 18.8695 20.5503 18.733C20.4935 18.5965 20.4104 18.4725 20.3057 18.3682L19.2449 17.3074Z" fill="#21E786"/>
<path d="M5.45465 17.3072L4.39387 18.368C4.2891 18.4723 4.20593 18.5962 4.14912 18.7328C4.09232 18.8693 4.063 19.0156 4.06284 19.1635C4.06268 19.3113 4.09168 19.4578 4.14819 19.5944C4.2047 19.731 4.2876 19.8552 4.39215 19.9597C4.4967 20.0643 4.62084 20.1472 4.75748 20.2037C4.89411 20.2602 5.04055 20.2892 5.1884 20.2891C5.33626 20.2889 5.48263 20.2596 5.61914 20.2028C5.75565 20.146 5.87961 20.0628 5.98394 19.958L7.04474 18.8972C7.14944 18.7929 7.23255 18.6689 7.2893 18.5324C7.34605 18.396 7.37532 18.2496 7.37545 18.1018C7.37558 17.954 7.34656 17.8076 7.29005 17.671C7.23355 17.5344 7.15066 17.4103 7.04613 17.3058C6.94161 17.2012 6.8175 17.1183 6.68091 17.0618C6.54432 17.0053 6.39792 16.9763 6.2501 16.9764C6.10228 16.9766 5.95594 17.0058 5.81945 17.0626C5.68296 17.1193 5.55899 17.2024 5.45465 17.3072Z" fill="#21E786"/>
<path d="M5.4548 6.69715C5.55918 6.8017 5.68313 6.88466 5.81959 6.94128C5.95604 6.9979 6.10231 7.02708 6.25004 7.02714C6.39778 7.0272 6.54408 6.99815 6.68058 6.94164C6.81708 6.88514 6.9411 6.80228 7.04557 6.69782C7.15003 6.59336 7.23288 6.46933 7.28939 6.33283C7.34589 6.19633 7.37495 6.05003 7.37488 5.9023C7.37482 5.75457 7.34564 5.60829 7.28902 5.47184C7.2324 5.33539 7.14944 5.21143 7.04489 5.10706L5.98409 4.04626C5.87979 3.94137 5.75582 3.8581 5.61928 3.80121C5.48274 3.74432 5.33631 3.71493 5.1884 3.71472C5.04048 3.71452 4.89397 3.7435 4.75728 3.80001C4.62058 3.85652 4.49638 3.93945 4.39178 4.04404C4.28719 4.14864 4.20426 4.27284 4.14775 4.40954C4.09124 4.54624 4.06226 4.69274 4.06247 4.84066C4.06268 4.98858 4.09207 5.135 4.14896 5.27154C4.20585 5.40808 4.28913 5.53205 4.39401 5.63635L5.4548 6.69715Z" fill="#21E786"/>
</svg>
