<svg width="119" height="307" viewBox="0 0 119 307" fill="none" xmlns="http://www.w3.org/2000/svg">
<g filter="url(#filter0_f_1_794)">
<path d="M-22.1892 297.004L-43.5378 217.33L-84.7876 288.777L-127.346 264.205L-86.0963 192.759L-165.77 214.107L-178.489 166.642L-98.8146 145.293L-170.261 104.043L-145.69 61.485L-74.2435 102.735L-95.5921 23.0606L-48.1267 10.3423L-26.778 90.0164L14.4717 18.5697L57.0303 43.1409L15.7805 114.588L95.4546 93.239L108.173 140.704L28.4988 162.053L99.9455 203.303L75.3744 245.861L3.92763 204.612L25.2763 284.286L-22.1892 297.004Z" fill="url(#paint0_linear_1_794)"/>
</g>
<defs>
<filter id="filter0_f_1_794" x="-188.489" y="0.342285" width="306.662" height="306.662" filterUnits="userSpaceOnUse" color-interpolation-filters="sRGB">
<feFlood flood-opacity="0" result="BackgroundImageFix"/>
<feBlend mode="normal" in="SourceGraphic" in2="BackgroundImageFix" result="shape"/>
<feGaussianBlur stdDeviation="5" result="effect1_foregroundBlur_1_794"/>
</filter>
<linearGradient id="paint0_linear_1_794" x1="101.814" y1="116.972" x2="-172.13" y2="190.375" gradientUnits="userSpaceOnUse">
<stop stop-color="#1D2328"/>
<stop offset="1" stop-color="#1D2328" stop-opacity="0"/>
</linearGradient>
</defs>
</svg>
